#define IconVideo_width 18
#define IconVideo_height 8
static unsigned char IconVideo_bits[] = {
   0x00, 0x00, 0x00, 0xe0, 0x0f, 0x00, 0x20, 0x08, 0x00, 0xa0, 0x09, 0x00,
   0xa0, 0x0a, 0x00, 0xa0, 0x09, 0x00, 0x20, 0x08, 0x00, 0xe0, 0x0f, 0x00 };
