#define IconCalendar_width 18
#define IconCalendar_height 8
static unsigned char IconCalendar_bits[] = {
   0x00, 0x00, 0x00, 0xe0, 0x0f, 0x00, 0x20, 0x08, 0x00, 0xe0, 0x0f, 0x00,
   0x20, 0x08, 0x00, 0xa0, 0x0a, 0x00, 0x20, 0x08, 0x00, 0xe0, 0x0f, 0x00 };
