#define IconUpload_width 18
#define IconUpload_height 8
static unsigned char IconUpload_bits[] = {
   0x00, 0x00, 0x00, 0xe0, 0x0f, 0x00, 0x00, 0x01, 0x00, 0x80, 0x03, 0x00,
   0x40, 0x05, 0x00, 0x00, 0x01, 0x00, 0x00, 0x01, 0x00, 0x00, 0x01, 0x00 };
