#define IconDisconnected_width 18
#define IconDisconnected_height 8
static unsigned char IconDisconnected_bits[] = {
   0x00, 0x00, 0x00, 0xa0, 0x08, 0x00, 0x40, 0x08, 0x00, 0xa0, 0x0a, 0x00,
   0x00, 0x0a, 0x00, 0x80, 0x0a, 0x00, 0x80, 0x0a, 0x00, 0xa0, 0x0a, 0x00 };
