#define IconCall_width 18
#define IconCall_height 8
static unsigned char IconCall_bits[] = {
   0x00, 0x00, 0x00, 0x00, 0x00, 0x00, 0xc0, 0x0f, 0x00, 0x20, 0x10, 0x00,
   0xa0, 0x17, 0x00, 0x60, 0x18, 0x00, 0x00, 0x00, 0x00, 0x00, 0x00, 0x00 };
