#define IconPicture_width 18
#define IconPicture_height 8
static unsigned char IconPicture_bits[] = {
   0x00, 0x00, 0x00, 0xe0, 0x0f, 0x00, 0x20, 0x08, 0x00, 0x20, 0x09, 0x00,
   0xa0, 0x0a, 0x00, 0x60, 0x0a, 0x00, 0x20, 0x0c, 0x00, 0xe0, 0x0f, 0x00 };
