#define IconSMS_width 18
#define IconSMS_height 8
static unsigned char IconSMS_bits[] = {
   0x00, 0x00, 0x00, 0x00, 0x00, 0x00, 0xe0, 0x0f, 0x00, 0x20, 0x08, 0x00,
   0x60, 0x0c, 0x00, 0xa0, 0x0b, 0x00, 0x20, 0x08, 0x00, 0xe0, 0x0f, 0x00 };
