#define IconChat_width 18
#define IconChat_height 8
static unsigned char IconChat_bits[] = {
   0x00, 0x00, 0x00, 0xe0, 0x0f, 0x00, 0x20, 0x08, 0x00, 0x20, 0x08, 0x00,
   0x20, 0x08, 0x00, 0x20, 0x0f, 0x00, 0xa0, 0x00, 0x00, 0x60, 0x00, 0x00 };
